<?xml version="1.0" encoding="utf-8"?>
<!-- Generator: Adobe Illustrator 26.0.0, SVG Export Plug-In . SVG Version: 6.00 Build 0)  -->
<svg version="1.1" id="Capa_1" xmlns="http://www.w3.org/2000/svg" xmlns:xlink="http://www.w3.org/1999/xlink" x="0px" y="0px"
	 viewBox="0 0 149.6 44.2" style="enable-background:new 0 0 149.6 44.2;" xml:space="preserve">
<path d="M25.6,40.1H5.6c-2.9,0.2-5.4-2-5.6-4.9c0-0.2,0-0.5,0-0.7V5.6C-0.2,2.7,2,0.2,4.9,0c0.2,0,0.5,0,0.7,0h40.2
	c2.9-0.2,5.5,2,5.6,5c0,0.2,0,0.5,0,0.7v28.8c0,3.5-2.2,5.7-5.7,5.7H25.6z M15.6,18.9c-1.8,2.2-3.6,4.3-5.3,6.4
	c-0.7,0.8-0.7,2,0.1,2.7c0,0,0.1,0.1,0.1,0.1c0.8,0.7,1.9,0.6,2.6-0.2c0,0,0.1-0.1,0.1-0.2c2.1-2.5,4.2-5.1,6.4-7.6
	c0.7-0.7,0.7-1.7,0.1-2.4c-2.2-2.7-4.4-5.3-6.6-8c-0.6-0.7-1.6-0.9-2.3-0.3c-0.8,0.4-1.1,1.3-0.9,2.1c0.1,0.4,0.4,0.8,0.7,1.1
	C12.2,14.8,13.9,16.8,15.6,18.9L15.6,18.9z M27.8,33.1h6.1c1.3,0,2.2-0.7,2.2-1.8s-0.8-1.7-2.1-1.8H21.6c-1-0.1-1.9,0.6-2.1,1.6
	c0,0,0,0.1,0,0.1c0,1,0.9,1.7,2.1,1.7L27.8,33.1z M125.6,40.1h-2.9v-9.7c1.7-0.4,2.3-0.2,2.6,0.5c0.9-0.4,1.8-0.6,2.8-0.8
	c0.9,0.1,1.9,0.4,2.7,0.8c0.8-0.4,1.6-0.6,2.5-0.8c1.6-0.3,3.2,0.8,3.5,2.4c0,0.2,0.1,0.4,0.1,0.6c0.1,2.3,0,4.5,0,6.9H134v-5.8
	c0-1.3-0.6-1.8-1.7-1.5c-0.6,0-1.1,0.6-1,1.2c0,0,0,0.1,0,0.1V40h-2.9v-6.2c0-0.8-0.5-1.2-1.2-1.2s-1.5,0.3-1.5,1.3L125.6,40.1z
	 M94.6,41.7c1.2,0.1,2.3,0.3,3.4,0.3c1.8,0,2.5-0.8,2.4-2.5c-0.8,0.3-1.7,0.6-2.6,0.7c-1.8,0.1-3.4-1.2-3.6-3
	c-0.2-1.1-0.2-2.2,0-3.3c0.2-1.9,1.6-3.3,3.5-3.5c1.7-0.1,3.4,0,5.1,0.1c0.6,0,0.7,0.4,0.7,0.9c0,2.8,0,5.7-0.1,8.5
	c0.1,2.2-1.6,4.2-3.8,4.3c-0.1,0-0.1,0-0.2,0c-1.2,0-2.4,0-3.6-0.1c-0.9,0-1.3-0.5-1.1-1.3C94.6,42.4,94.6,42,94.6,41.7z
	 M100.4,34.8V33c0-0.2-0.2-0.5-0.4-0.6c-1-0.3-2.1,0-2.7,0.9c-0.6,1.1-0.6,2.5-0.1,3.6c0.4,0.9,1.3,1,2.2,0.8s1.1-0.8,1-1.6
	C100.4,35.7,100.4,35.3,100.4,34.8L100.4,34.8z M85.6,24.1c1.3,0.1,2.4,0.2,3.6,0.2c1.7,0,2.4-0.9,2.1-2.6c-0.5,0.3-1.1,0.6-1.6,0.8
	c-1.8,0.6-3.8-0.5-4.4-2.3c0-0.1-0.1-0.2-0.1-0.4c-0.3-1.4-0.3-2.8,0-4.1c0.5-2.2,2.4-3.1,4.5-3.2c1.3,0,2.6,0.1,3.9,0.3
	c0.6,0.1,0.7,0.3,0.7,0.9v8.5c0.2,2.2-1.5,4.1-3.7,4.3c0,0-0.1,0-0.1,0c-1.3,0.1-2.6,0.1-3.9,0c-0.9,0-1.2-0.4-1.1-1.3
	C85.6,24.8,85.6,24.5,85.6,24.1z M91.4,17.3v-1.9c0-0.2-0.2-0.5-0.4-0.6c-1-0.4-2.7,0.2-2.9,1.2c-0.2,1-0.2,2.1,0,3.1
	c0.2,0.9,1.2,1.2,2.2,1.1s1.2-0.7,1.1-1.6C91.4,18.2,91.3,17.8,91.4,17.3z M76.8,22.4c-0.2,0.1-0.2,0.1-0.2,0.1
	c-2.6,0.2-2.7,0.2-3.4-2.3c-0.3-1-0.7-1.4-1.7-1.2s-2,0-3,0c-0.3,0-0.6,0.4-0.8,0.6s-0.2,0.4-0.2,0.7c-0.8,2.5-0.8,2.5-3.6,2.1
	c0.5-1.5,0.9-2.9,1.4-4.4c0.9-2.7,1.8-5.4,2.6-8.1c0.2-0.6,0.4-0.9,1.1-0.9c1.1,0.1,2.2,0,3.5,0L76.8,22.4z M68.7,16.5H72l-1.6-5.1
	h-0.2L68.7,16.5z M64.9,44V30.3c2-0.3,2.4-0.2,2.7,0.8c0.9-1,2.4-1.4,3.7-0.9c0.8,0.2,1.5,0.7,2.1,1.4c1.2,1.9,1.4,4.2,0.3,6.2
	c-0.9,1.9-2.7,2.4-4.6,2.5h-1.3V44L64.9,44z M67.9,37.9c1.3,0.2,2.4,0.2,3.1-0.8c0.6-1.2,0.6-2.7,0-3.9c-0.5-0.7-1.4-0.9-2.1-0.6
	c-0.4,0.1-0.9,0.6-0.9,0.9C67.8,34.9,67.8,36.4,67.9,37.9L67.9,37.9z M109.5,22.5h-2.9v-9.9c0.9,0.4,2.1-0.6,2.6,0.8
	c0.6-0.3,1.3-0.6,2-0.8c2.3-0.6,4,0.5,4.2,2.9s0,4.6,0,7h-2.8v-5.8c0-1.2-0.5-1.7-1.5-1.6c-1.2,0-1.6,0.6-1.6,1.7L109.5,22.5z
	 M133.4,22.5h-2.8v-9.7c1.6-0.4,2.2-0.3,2.5,0.7c1.1-0.9,2.5-1.3,3.8-1c1.3,0.1,2.3,1.2,2.4,2.5c0.1,2.4,0,4.9,0,7.4h-2.8v-5.8
	c0-1.4-0.7-1.9-2.1-1.5c-0.7,0.1-1.1,0.7-1.1,1.4C133.5,18.5,133.4,20.5,133.4,22.5L133.4,22.5z M92.5,35.2c0,4-3,6-6.7,4.8
	c-0.2-0.1-0.4-0.1-0.6-0.2c-1.8-0.9-2.7-3-2.3-5.6c0.3-2.3,1.4-3.6,3.4-4C90.1,29.4,92.5,31.4,92.5,35.2z M85.7,35.2
	c0.1,0.6,0.2,1.2,0.3,1.7c0.2,0.8,0.9,1.2,1.7,1.2c0.8,0.1,1.5-0.4,1.7-1.2c0,0,0,0,0-0.1c0.1-1.1,0.1-2.2,0-3.3
	c-0.1-0.8-0.9-1.3-1.7-1.2c-0.7-0.1-1.4,0.4-1.6,1.2C85.9,34,85.8,34.6,85.7,35.2L85.7,35.2z M144.1,34.1c0-1.2-0.4-1.7-1.6-1.7
	c-1.1,0-2.1,0.1-3.2,0.2v-2c1.8-0.6,3.7-0.6,5.5-0.1c1.2,0.2,2,1.2,2.1,2.4c0.1,2.4,0,4.8,0,7.4c-0.8-0.4-2,0.7-2.6-0.9
	c-1,1-2.5,1.3-3.8,0.9c-1.2-0.3-2-1.3-2.1-2.5c-0.2-1.2,0.5-2.4,1.7-2.8C141.5,34.6,142.8,34.3,144.1,34.1z M144.1,35.9
	c-0.6,0-1.1,0.1-1.7,0.2c-0.4,0.2-0.8,0.7-0.8,1.2c0.1,0.5,0.5,0.9,1,1C143.8,38.3,144.5,38,144.1,35.9L144.1,35.9z M120.5,40.2
	c-1-0.5-2.2,0.7-2.6-1c-0.9,1-2.3,1.3-3.7,1c-1.3-0.2-2.2-1.3-2.2-2.6c-0.2-1.3,0.6-2.5,1.8-2.8c1.2-0.3,2.5-0.5,3.7-0.7
	c0.1-1.2-0.3-1.7-1.5-1.7c-1,0-2.1,0.1-3.2,0.2v-2c2-0.7,4.1-0.6,6,0.1c1.1,0.5,1.7,1.6,1.6,2.8C120.6,35.6,120.5,37.8,120.5,40.2z
	 M117.5,35.8c-0.6,0-1.2,0.1-1.8,0.3c-0.4,0.3-0.7,0.7-0.7,1.2c0.2,0.4,0.5,0.8,1,0.9C117.5,38.2,117.9,37.9,117.5,35.8L117.5,35.8z
	 M141.9,14.9v-2c1.9-0.6,4-0.6,5.9,0c1.2,0.5,1.9,1.7,1.9,2.9c0.1,2.2,0,4.3,0,6.5c-1.7,0.4-2.2,0.2-2.7-0.7c-1,1-2.5,1.3-3.9,0.8
	c-1.1-0.3-1.9-1.3-1.9-2.5c-0.1-1.2,0.5-2.3,1.6-2.7c0.8-0.3,1.7-0.5,2.6-0.6c0.5-0.1,1-0.1,1.5-0.2c0-1.2-0.3-1.7-1.4-1.8
	C144.1,14.8,143,14.8,141.9,14.9L141.9,14.9z M146.7,18.2c-0.6,0-1.2,0.1-1.8,0.3c-0.4,0.2-0.7,0.7-0.8,1.2c0.2,0.5,0.6,0.8,1.1,0.9
	C146.5,20.6,147,20.4,146.7,18.2z M105,18.4h-5.9c-0.1,1.2,0.4,1.9,1.7,2s2.3,0,3.5,0c-0.1-0.1-0.1-0.1-0.1-0.1
	c0.1,2.4,0.4,2.1-1.9,2.3c-1.3,0.1-2.5-0.1-3.7-0.4c-1.2-0.3-2.1-1.2-2.3-2.5c-0.2-1.3-0.3-2.6-0.1-3.9c0.4-2.3,2.1-3.4,4.5-3.4
	c2.2,0,3.6,1.2,4,3.6C104.9,16.8,104.9,17.5,105,18.4z M102.1,16.7c0.1-1.5-0.4-2.4-1.5-2.4s-1.7,0.9-1.5,2.4H102.1z M123.8,14.9
	h-0.6c-2,0.1-2,0.1-2,2.1v0.7c0,2.3,0.2,2.5,2.6,2.5v2.1c-2.7,1.4-5.4-0.2-5.4-3.2v-4l-1.5-0.1v-2.2l1.5-0.1
	c0.2-1.1,0.4-2.2,0.6-3.4h2.4v3.4h2.6L123.8,14.9z M78.1,12.7h2.3l0.3,1.1c0.8-1,2.2-1.5,3.5-1.2v2.5c-0.8,0.1-1.5,0.2-2.3,0.4
	c-0.6,0.1-1.1,0.7-1,1.4c0.1,1.9,0,3.7,0,5.7h-2.9L78.1,12.7z M78.6,31.1c1-0.3,1.9-0.7,2.8-0.9c0.6-0.1,0.8,0.2,0.8,0.8
	s0,1.2,0,1.9c-0.3,0-0.7,0-1,0c-2,0.3-2.3,0.6-2.2,2.3s0,3.3,0,5h-2.8v-9.8h2.2L78.6,31.1z M111.7,32.7h-1.2
	c-1.6,0.1-2.1,0.7-2.1,2.2V40h-2.8v-9.6c1.8-0.4,2.2-0.2,2.5,0.7c0.8-0.3,1.7-0.7,2.6-1c0.7-0.2,1.1,0.1,1,0.9
	C111.6,31.6,111.6,32.2,111.7,32.7z M128.2,22.5h-2.8v-9.7h2.8V22.5z M126.9,11.3c-1.2,0-1.8-0.6-1.8-1.6s0.7-1.5,1.8-1.5
	s1.9,0.6,1.8,1.6S128,11.2,126.9,11.3z"/>
</svg>
