<?xml version="1.0" encoding="utf-8"?>
<!-- Generator: Adobe Illustrator 26.0.0, SVG Export Plug-In . SVG Version: 6.00 Build 0)  -->
<svg version="1.1" id="Capa_1" xmlns="http://www.w3.org/2000/svg" xmlns:xlink="http://www.w3.org/1999/xlink" x="0px" y="0px"
	 viewBox="0 0 51.5 40.1" style="enable-background:new 0 0 51.5 40.1;" xml:space="preserve">
<style type="text/css">
	.st0{fill:#020203;}
</style>
<path class="st0" d="M45.8,0H5.7C5.4,0,5.2,0,4.9,0C2,0.2-0.2,2.7,0,5.6v28.9c0,0.2,0,0.5,0,0.7c0.2,2.9,2.7,5.1,5.6,4.9h40.2
	c3.5,0,5.7-2.2,5.7-5.7V5.7c0-0.2,0-0.5,0-0.7C51.3,2,48.7-0.2,45.8,0z M13.1,28c-0.7,0.8-1.8,0.8-2.6,0.2c0,0-0.1-0.1-0.1-0.1
	c-0.8-0.7-0.8-1.9-0.1-2.7c1.7-2.1,3.5-4.3,5.3-6.4l0,0c-1.8-2.1-3.5-4.1-5.1-6.2c-0.3-0.3-0.5-0.7-0.7-1.1
	c-0.3-0.8,0.1-1.7,0.9-2.1c0.7-0.5,1.8-0.4,2.3,0.3c2.2,2.7,4.4,5.3,6.6,8c0.6,0.7,0.6,1.8-0.1,2.4c-2.1,2.5-4.2,5.1-6.4,7.6
	C13.2,27.9,13.2,27.9,13.1,28z M34,33.1h-6.1l-6.1,0c-1.3,0-2.1-0.7-2.1-1.7c0,0,0-0.1,0-0.1c0.1-1,1.1-1.7,2.1-1.6H34
	c1.3,0,2.1,0.7,2.1,1.8C36.1,32.5,35.3,33.1,34,33.1z"/>
</svg>
