<svg id="Capa_1" data-name="Capa 1" xmlns="http://www.w3.org/2000/svg" xmlns:xlink="http://www.w3.org/1999/xlink" viewBox="0 0 1920 1080"><defs><style>.cls-1,.cls-2,.cls-3,.cls-4{fill:none;stroke-miterlimit:10;}.cls-1{stroke:url(#Degradado_sin_nombre_24);}.cls-2{stroke:url(#Degradado_sin_nombre_20);}.cls-3{stroke:url(#Degradado_sin_nombre_39);}.cls-4{stroke:url(#Degradado_sin_nombre_39-2);}</style><linearGradient id="Degradado_sin_nombre_24" x1="1227.16" y1="468.84" x2="1878.79" y2="468.84" gradientTransform="matrix(-1, -0.03, -0.03, 1, 3421.74, 132.82)" gradientUnits="userSpaceOnUse"><stop offset="0" stop-color="#fff"/><stop offset="0.99" stop-color="#1d1d1b"/><stop offset="1" stop-color="#5e5e5e"/></linearGradient><linearGradient id="Degradado_sin_nombre_20" x1="1506.61" y1="-261.77" x2="2158.19" y2="-261.77" gradientTransform="matrix(-1, 0.01, 0.01, 1, 3623.06, 788.98)" gradientUnits="userSpaceOnUse"><stop offset="0" stop-color="#fff"/><stop offset="0.09" stop-color="#dcdcdc"/><stop offset="0.19" stop-color="#bcbcbc"/><stop offset="0.3" stop-color="#a2a2a2"/><stop offset="0.42" stop-color="#8e8e8e"/><stop offset="0.56" stop-color="gray"/><stop offset="0.72" stop-color="#787878"/><stop offset="1" stop-color="#1d1d1b"/></linearGradient><linearGradient id="Degradado_sin_nombre_39" x1="1732.13" y1="436.31" x2="2383.71" y2="436.31" gradientTransform="matrix(0.42, -0.91, -0.73, -0.34, -331.32, 2638.09)" gradientUnits="userSpaceOnUse"><stop offset="0" stop-color="#606060"/><stop offset="1" stop-color="#1d1d1b"/></linearGradient><linearGradient id="Degradado_sin_nombre_39-2" x1="1744.12" y1="403.8" x2="2395.7" y2="403.8" xlink:href="#Degradado_sin_nombre_39"/></defs><path class="cls-1" d="M1513.46,1083.75s163.75-434.64,373.22-519.34c220.83-89.29,310.15-540.27,310.15-540.27"/><path class="cls-2" d="M1467.54,1083.75s147-440.54,353.06-533.25C2037.85,452.82,2109.84-1.25,2109.84-1.25"/><path class="cls-3" d="M-47.3,145S211.58,428.85,191.64,647.31c-21.06,230.29,279.55,450.83,279.55,450.83"/><path class="cls-4" d="M-18.46,145S240.42,428.85,220.48,647.31C199.42,877.6,500,1098.14,500,1098.14"/></svg>