<svg id="Capa_1" data-name="Capa 1" xmlns="http://www.w3.org/2000/svg" viewBox="0 0 800 800"><defs><style>.cls-2{fill:#64bda4}</style></defs><rect width="800" height="800" rx="207.67" style="fill:#121b2e"/><path class="cls-2" d="m222.84 418 141 141a25.41 25.41 0 0 1 0 35.93L338 620.82a25.41 25.41 0 0 1-35.93 0l-159-159L99.17 418a25.43 25.43 0 0 1 0-36L143 338.16l159-159a25.41 25.41 0 0 1 35.93 0l25.89 25.89a25.41 25.41 0 0 1 0 35.93l-141 141a25.43 25.43 0 0 0 .02 36.02Z"/><rect class="cls-2" x="308.62" y="289.4" width="87.44" height="168.76" rx="25.47" transform="rotate(45 352.335 373.782)"/><path class="cls-2" d="m577.8 382-141-141a25.41 25.41 0 0 1 0-35.93l25.89-25.89a25.41 25.41 0 0 1 35.93 0l159 159L701.47 382a25.43 25.43 0 0 1 0 36l-43.86 43.86-159 159a25.41 25.41 0 0 1-35.93 0l-25.89-25.89a25.41 25.41 0 0 1 0-35.93l141-141a25.43 25.43 0 0 0 .01-36.04Z"/><rect class="cls-2" x="404.58" y="341.84" width="87.44" height="168.76" rx="25.48" transform="rotate(-135 448.304 426.219)"/></svg>